<?xml version="1.0" encoding="utf-8"?>
<!-- Generator: Adobe Illustrator 19.0.0, SVG Export Plug-In . SVG Version: 6.00 Build 0)  -->
<svg version="1.1" id="Layer_1" xmlns="http://www.w3.org/2000/svg" xmlns:xlink="http://www.w3.org/1999/xlink" x="0px" y="0px"
	 viewBox="0 0 500 500" style="enable-background:new 0 0 500 500;" xml:space="preserve">
<style type="text/css">
	.st0{fill:#003D79;}
	.st1{fill:url(#SVGID_1_);}
</style>
<g id="XMLID_1_">
	<path id="XMLID_2_" class="st0" d="M67.9,269.9c0-5.3-0.1-9.7-0.4-13.7h10L78,263h0.3c2.3-3.6,6.4-7.8,14.1-7.8
		c6,0,10.7,3.4,12.7,8.5h0.2c1.6-2.5,3.5-4.4,5.6-5.7c2.5-1.8,5.5-2.7,9.2-2.7c7.6,0,15.4,5.2,15.4,19.9v27h-11.3v-25.3
		c0-7.6-2.6-12.2-8.2-12.2c-4,0-6.9,2.8-8.1,6.1c-0.3,1.1-0.6,2.5-0.6,3.9v27.5H96v-26.6c0-6.4-2.5-10.9-7.9-10.9
		c-4.3,0-7.2,3.4-8.3,6.6c-0.5,1.1-0.7,2.5-0.7,3.8v27.1H67.9V269.9z"/>
	<path id="XMLID_3_" class="st0" d="M179.6,291.1c0,4.1,0.2,8.2,0.7,11h-10.5L169,297h-0.3c-2.8,3.6-7.6,6.1-13.6,6.1
		c-9.2,0-14.4-6.7-14.4-13.7c0-11.6,10.3-17.4,27.2-17.3v-0.8c0-3-1.2-8-9.3-8c-4.5,0-9.2,1.4-12.3,3.4l-2.3-7.5
		c3.4-2.1,9.3-4.1,16.6-4.1c14.7,0,18.9,9.3,18.9,19.3V291.1z M168.2,279.7c-8.2-0.2-16,1.6-16,8.6c0,4.5,2.9,6.6,6.6,6.6
		c4.6,0,8-3,9-6.3c0.3-0.9,0.4-1.8,0.4-2.5V279.7z"/>
	<path id="XMLID_6_" class="st0" d="M187.6,269.9c0-5.3-0.1-9.7-0.4-13.7h10.2l0.6,6.9h0.3c2-3.6,7-7.9,14.6-7.9
		c8,0,16.3,5.2,16.3,19.7v27.2h-11.6v-25.9c0-6.6-2.5-11.6-8.8-11.6c-4.6,0-7.8,3.3-9,6.8c-0.4,1-0.5,2.4-0.5,3.8v26.9h-11.7V269.9z
		"/>
	<path id="XMLID_7_" class="st0" d="M279.3,237.8v51.4c0,4.7,0.2,9.8,0.4,12.9h-10.4l-0.5-7.3h-0.2c-2.7,5.1-8.3,8.3-15,8.3
		c-10.9,0-19.6-9.3-19.6-23.4c-0.1-15.4,9.5-24.5,20.5-24.5c6.3,0,10.8,2.6,12.9,6h0.2v-23.4H279.3z M267.8,275.4
		c0-0.9-0.1-2.1-0.3-3c-1-4.5-4.7-8.2-10-8.2c-7.4,0-11.6,6.6-11.6,15.2c0,8.4,4.1,14.5,11.5,14.5c4.7,0,8.9-3.2,10-8.2
		c0.3-1,0.4-2.2,0.4-3.4V275.4z"/>
	<rect id="XMLID_10_" x="287.5" y="256.2" class="st0" width="11.7" height="45.9"/>
	<path id="XMLID_11_" class="st0" d="M307.4,271c0-6.2-0.1-10.7-0.4-14.8h10.1l0.4,8.8h0.4c2.3-6.5,7.6-8.8,12.5-8.8
		c1.1,0,1.8-0.2,2.7,0v10.2c-0.9-0.2-2-0.4-3.4-0.4c-5.6,0-9.3,3.6-10.4,8.8c-0.2,1-0.4,2.3-0.4,3.6v23.7h-11.6V271z"/>
	<rect id="XMLID_12_" x="338.5" y="256.2" class="st0" width="11.7" height="45.9"/>
	
		<linearGradient id="SVGID_1_" gradientUnits="userSpaceOnUse" x1="-7.342985e-002" y1="2.317335e-002" x2="1.58" y2="2.317335e-002" gradientTransform="matrix(144.6874 -66.855 66.855 144.6874 236.403 258.1307)">
		<stop  offset="0" style="stop-color:#FDB913"/>
		<stop  offset="0.2247" style="stop-color:#FFCB05"/>
		<stop  offset="0.3933" style="stop-color:#FAA61A"/>
		<stop  offset="0.5281" style="stop-color:#FFCB05"/>
		<stop  offset="0.6461" style="stop-color:#FAA61A"/>
		<stop  offset="0.764" style="stop-color:#FFCB05"/>
		<stop  offset="1" style="stop-color:#FFCB05"/>
	</linearGradient>
	<path class="st1" d="M336.1,200.7c-7,4.1-29.9,17.2-29.9,17.2c-8.6,3.5-15.2-0.8-17.3-3.9l-0.3-0.4l-0.3-0.5l-1.5-2.4
		c-0.6-1-1.3-2-2.1-3c-0.7-0.9-1.5-1.8-2.3-2.7c-5.5-5.6-14.4-9.5-29.1-2.5c-8.9,5.1-29.6,16.9-29.6,16.9l0,0
		c-8.5,4.9-15.2,8.7-15.2,8.7l7.8,9.6c3.3,3.1,9.5,8.3,19.1,4l26.6-15.4c22.6-12.4,33.8-0.6,38.8,7.4c0.2,0.2,0.3,0.5,0.5,0.8l0,0
		l0.1,0.3l0.6,0.9c2.4,3.6,6.2,6,10.7,5.9c2.5,0,4.2-0.9,6.7-2.2l25.6-14.9l0.1,0c22.9-12.6,34.3,0.1,39.1,8
		c0.4,0.7,0.8,1.3,1.2,1.9c2.4,3.3,5.7,5.4,9.9,5.3c2.8-0.1,5.9-1.7,6.4-2l30.7-17.7c0,0-3.1-4.7-9.6-12.1
		c-5.8-6.6-11.9-3.6-16.8-1.2c-2.1,1-16.9,9.4-16.9,9.4c-8.1,3.4-14.5-0.3-16.9-3.4c-0.3-0.3-0.5-0.6-0.6-0.9l-0.6-1
		c-0.9-1.5-2-3.2-3.3-4.9c-0.7-0.9-1.5-1.8-2.3-2.7c-3.4-3.5-8.1-6.3-14.6-6.3C346.7,196.8,341.9,197.9,336.1,200.7"/>
</g>
</svg>
